<svg width="50" height="50" xmlns="http://www.w3.org/2000/svg">
 <!-- Created with Savage - http://github.com/coppolaemilio/savage/ -->

 <g>
  <title>path-selected.svg - Savage</title>
  <rect x="-1" y="-1" width="27.0014" height="27.0014" id="canvas_background" fill="none"/>
 </g>
 <g>
  <title>path-selected.svg - Savage</title>
  <g id="svg_3">
   <path fill="none" fill-opacity="null" stroke="#56aaff" stroke-width="2" stroke-linejoin="null" stroke-linecap="null" d="m14.289085,23.781255c0.375,-0.84911 6.8385,-9.16668 13.14584,-4.45835c6.30733,4.70832 2.18753,11.17184 1.85419,12.12501c-0.33333,0.95317 -15.2343,9.60417 -15.74998,9.77083c-0.51568,0.16667 0.37495,-16.58838 0.74995,-17.43749z" id="svg_1"/>
   <path stroke="#56aaff" fill="none" fill-opacity="null" d="m13.872465,40.884175c0,0.38926 7.06247,-13.04042 7.06239,-13.04052c0.00008,0.0001 -7.06239,12.65125 -7.06239,13.04052z" id="svg_2"/>
   <ellipse ry="1.031249" rx="0.874999" id="svg_4" cy="28.145804" cx="20.664101" stroke="#56aaff" fill="#56aaff"/>
   <path id="svg_5" d="m20.664105,18.364565l3.81246,-0.6875l3.18749,1.25l1.75,1.8125l1.4375,2l6.12499,-5.75c-2.08333,-2.31249 -1.60417,-2.62499 -6.18749,-6.49999l-8.49999,-1.87499l-1.62496,9.74998z" stroke-opacity="null" stroke-width="0" stroke="#666666" fill="#56aaff"/>
  </g>
 </g>
</svg>